<?xml version="1.0" standalone="no"?>
<!DOCTYPE svg PUBLIC "-//W3C//DTD SVG 20010904//EN"
 "http://www.w3.org/TR/2001/REC-SVG-20010904/DTD/svg10.dtd">
<svg version="1.0" xmlns="http://www.w3.org/2000/svg"
 width="512.000000pt" height="512.000000pt" viewBox="0 0 512.000000 512.000000"
 preserveAspectRatio="xMidYMid meet">
<metadata>
Created by potrace 1.14, written by Peter Selinger 2001-2017
</metadata>
<g transform="translate(0.000000,512.000000) scale(0.100000,-0.100000)"
fill="#000000" stroke="none">
<path d="M2473 5015 c-6 -7 -10 -15 -7 -17 2 -3 -3 -5 -11 -5 -8 0 -12 4 -9 9
6 9 -25 6 -43 -5 -6 -4 -14 -1 -16 5 -4 10 -6 10 -6 1 -1 -7 -6 -13 -12 -13
-5 0 -7 6 -4 13 4 6 0 4 -8 -5 -9 -12 -17 -14 -24 -7 -8 8 -13 7 -18 -2 -5 -8
-4 -10 3 -5 8 5 10 1 5 -10 -6 -15 -7 -15 -15 0 -7 13 -13 14 -23 6 -8 -7 -20
-8 -26 -4 -9 5 -10 2 -5 -12 6 -15 5 -16 -5 -7 -10 10 -15 9 -26 -5 -8 -9 -12
-12 -9 -5 4 6 2 14 -4 18 -5 3 -10 0 -10 -8 0 -9 -10 -13 -30 -12 -26 2 -28 0
-17 -14 9 -12 9 -13 0 -7 -8 4 -13 2 -13 -6 0 -9 -3 -9 -10 2 -8 11 -12 12
-18 3 -4 -7 -18 -11 -31 -8 -19 3 -21 2 -10 -11 10 -12 9 -13 -4 -8 -10 3 -17
-1 -20 -13 -4 -17 -5 -17 -6 0 -1 15 -5 14 -27 -10 -14 -15 -23 -23 -20 -17 6
12 -23 29 -32 19 -3 -3 0 -5 6 -5 7 0 12 -5 12 -11 0 -5 -4 -8 -9 -4 -5 3 -17
-2 -25 -11 -12 -11 -16 -12 -16 -2 0 7 -10 2 -21 -12 -11 -14 -18 -20 -15 -13
4 7 -1 9 -14 6 -18 -5 -24 -14 -22 -34 1 -3 -6 -6 -14 -6 -17 0 -19 13 -1 20
9 4 9 6 -1 6 -8 1 -16 -8 -19 -20 -4 -15 -8 -17 -14 -8 -6 10 -11 7 -18 -11
-5 -14 -10 -19 -10 -11 -1 11 -4 11 -16 1 -8 -6 -19 -9 -25 -5 -6 4 -10 3 -9
-2 3 -20 -2 -27 -11 -13 -8 13 -10 13 -10 -2 0 -10 -5 -15 -13 -12 -7 2 -23
-5 -36 -17 -13 -12 -30 -19 -42 -16 -10 3 -17 1 -13 -4 3 -5 0 -9 -6 -9 -6 0
-8 -5 -4 -12 6 -10 4 -10 -8 0 -19 15 -34 0 -22 -20 5 -9 2 -9 -9 1 -11 8 -17
9 -17 3 0 -6 -7 -9 -16 -5 -10 4 -17 -2 -21 -17 -4 -15 -8 -18 -13 -9 -6 8
-11 5 -19 -10 -7 -12 -17 -19 -22 -15 -6 3 -17 -2 -25 -12 -9 -11 -12 -12 -8
-4 7 13 5 13 -8 2 -13 -10 -17 -10 -22 0 -3 7 -3 2 0 -12 5 -21 4 -23 -7 -12
-11 10 -17 8 -32 -10 -10 -13 -16 -16 -12 -8 4 10 1 9 -8 -2 -8 -10 -17 -18
-20 -18 -4 0 -4 8 -1 18 5 16 5 16 -6 -1 -6 -9 -9 -21 -6 -25 3 -5 -1 -9 -9
-9 -8 0 -12 3 -10 7 2 3 -5 6 -15 6 -15 0 -17 -4 -8 -19 7 -14 7 -17 -1 -13
-6 4 -20 9 -30 11 -15 3 -19 -1 -16 -16 2 -11 0 -17 -6 -13 -6 3 -17 -2 -25
-12 -12 -17 -13 -17 -8 -1 3 9 1 17 -5 17 -6 0 -11 -7 -11 -16 0 -10 -6 -14
-15 -10 -8 3 -14 0 -12 -7 1 -7 -8 -11 -20 -11 -12 1 -21 -4 -20 -10 1 -6 -4
-10 -10 -9 -7 2 -13 -2 -13 -7 0 -6 -6 -10 -12 -9 -29 3 -37 -2 -31 -18 6 -16
5 -16 -10 -4 -15 12 -17 11 -17 -4 0 -9 -6 -15 -12 -12 -7 2 -19 -3 -26 -12
-11 -13 -12 -13 -7 -1 4 8 -3 4 -15 -10 -12 -14 -19 -19 -15 -13 4 9 1 11 -9
7 -9 -3 -16 -12 -16 -20 0 -8 -6 -11 -15 -8 -8 4 -15 1 -15 -5 0 -6 -7 -8 -17
-4 -11 4 -14 3 -9 -5 4 -7 1 -12 -9 -12 -8 0 -18 -6 -21 -14 -3 -9 -12 -12
-22 -9 -11 5 -14 2 -9 -10 6 -15 4 -16 -14 -6 -12 6 -19 7 -16 2 9 -14 -7 -32
-31 -36 -12 -2 -25 -7 -29 -12 -5 -4 -2 -5 6 0 10 6 12 4 7 -4 -5 -7 -14 -10
-22 -7 -14 6 -15 -15 -1 -25 5 -3 1 -9 -8 -12 -9 -4 -13 -3 -10 3 3 6 1 10 -4
10 -6 0 -11 -5 -11 -11 0 -5 -5 -7 -11 -3 -8 4 -8 0 0 -15 11 -19 10 -20 -15
-11 -23 9 -25 9 -15 -4 8 -10 9 -16 1 -21 -5 -3 -10 -3 -10 2 0 4 -5 0 -11
-10 -8 -13 -7 -22 3 -34 11 -14 11 -15 -1 -9 -8 5 -17 3 -22 -5 -4 -8 -14 -14
-21 -14 -7 0 -13 -5 -13 -12 0 -6 -3 -14 -7 -18 -4 -4 -5 -12 -2 -19 2 -6 -5
-22 -16 -34 -11 -12 -16 -22 -10 -22 5 0 10 -4 10 -10 0 -5 -7 -7 -15 -4 -19
8 -19 0 0 -20 13 -13 13 -15 -6 -21 -12 -4 -18 -13 -15 -20 3 -8 -3 -16 -12
-18 -16 -4 -15 -5 1 -6 19 -1 24 -21 4 -21 -15 0 -17 -40 -2 -41 5 0 1 -4 -10
-9 -11 -5 -14 -9 -6 -9 11 -1 11 -4 1 -16 -7 -9 -8 -15 -2 -15 11 0 10 -25 -1
-36 -4 -4 -2 -13 4 -21 9 -9 8 -13 0 -13 -6 0 -11 -5 -11 -11 0 -5 4 -8 8 -5
4 2 8 -4 8 -14 0 -15 -3 -17 -15 -7 -11 9 -10 4 3 -17 15 -24 16 -28 3 -23
-11 4 -14 2 -10 -9 3 -7 8 -14 12 -14 4 0 8 -7 8 -15 0 -12 -3 -12 -16 -2 -12
9 -11 5 3 -17 16 -25 16 -28 2 -23 -14 6 -15 3 -6 -14 7 -11 16 -17 23 -12 8
4 7 1 -1 -10 -8 -9 -10 -22 -6 -29 6 -10 5 -10 -8 0 -14 11 -16 10 -11 -7 3
-12 9 -19 13 -16 5 3 12 1 15 -5 4 -6 1 -9 -5 -8 -7 2 -14 -8 -16 -21 -4 -21
-3 -22 13 -10 17 13 17 13 0 -7 -20 -24 -22 -44 -5 -44 6 0 3 -7 -8 -15 -14
-11 -15 -14 -3 -9 10 3 20 0 25 -7 4 -7 3 -10 -3 -6 -6 4 -19 0 -29 -8 -18
-13 -18 -14 6 -9 20 5 22 4 10 -6 -12 -9 -12 -13 -2 -17 10 -4 9 -9 -5 -19
-14 -11 -14 -13 -2 -9 10 4 16 0 16 -9 0 -8 -4 -13 -9 -10 -4 3 -8 -2 -8 -11
0 -9 4 -14 8 -11 5 3 9 -1 9 -9 0 -8 -4 -12 -9 -9 -4 3 -8 1 -8 -5 0 -5 8 -12
18 -14 16 -4 16 -5 0 -6 -20 -1 -25 -31 -5 -31 8 0 7 -4 -3 -10 -10 -6 -11
-10 -2 -10 6 0 12 -5 12 -11 0 -5 -6 -7 -12 -3 -8 5 -7 0 2 -11 13 -17 13 -18
-1 -13 -13 5 -16 2 -12 -13 3 -11 10 -16 17 -12 6 4 5 -1 -3 -11 -13 -15 -13
-19 0 -27 8 -5 9 -9 4 -9 -6 0 -12 -11 -13 -26 -1 -17 2 -23 10 -18 6 4 4 -3
-5 -16 -10 -15 -13 -29 -8 -39 9 -16 7 -48 -3 -58 -3 -3 -1 -13 4 -23 6 -11 4
-26 -6 -45 -13 -25 -13 -26 1 -15 12 10 18 10 26 2 5 -7 6 -10 3 -7 -12 8 -33
-16 -27 -31 4 -12 8 -12 22 -2 9 7 5 0 -9 -15 -21 -25 -22 -27 -5 -21 16 6 18
5 8 -7 -17 -17 -17 -43 -1 -33 9 5 9 2 -1 -9 -11 -14 -11 -17 0 -17 9 0 10 -3
3 -8 -12 -8 -15 -42 -4 -42 4 0 7 -7 7 -15 0 -11 -4 -12 -14 -3 -11 9 -12 7
-7 -8 4 -10 12 -25 17 -32 7 -9 6 -17 -3 -25 -9 -9 -11 -9 -6 0 3 6 2 14 -3
17 -5 4 -8 -1 -7 -10 1 -8 9 -20 17 -25 10 -6 10 -9 2 -9 -7 0 -13 -5 -13 -11
0 -5 5 -7 10 -4 6 3 10 2 10 -4 0 -5 -6 -12 -13 -15 -9 -5 -9 -7 0 -12 8 -3
10 -16 6 -35 -4 -20 -2 -29 8 -29 8 0 6 -5 -6 -14 -18 -13 -18 -13 1 -25 16
-10 16 -12 2 -7 -10 3 -18 1 -18 -4 0 -6 6 -10 13 -10 8 0 7 -4 -3 -10 -13 -9
-13 -10 0 -10 12 0 13 -2 1 -9 -9 -6 -10 -14 -5 -22 11 -17 12 -99 2 -93 -5 3
-8 0 -8 -5 0 -6 6 -11 13 -11 9 0 8 -3 -2 -9 -11 -7 -11 -9 0 -14 10 -4 10 -6
2 -6 -7 -1 -13 -6 -13 -12 0 -5 4 -8 8 -5 4 2 8 -4 9 -14 1 -11 -3 -23 -9 -26
-6 -4 -5 -10 3 -16 11 -7 11 -11 2 -15 -7 -2 -13 -9 -13 -14 0 -6 4 -8 8 -5
10 6 9 -25 -2 -42 -4 -7 -2 -12 6 -12 9 0 9 -3 2 -8 -11 -7 -15 -64 -4 -57 11
7 6 -40 -5 -47 -7 -5 -6 -8 1 -8 5 0 10 -11 10 -24 0 -14 -3 -23 -7 -20 -9 5
-4 -31 7 -48 4 -7 3 -8 -4 -4 -16 10 -15 -7 1 -23 10 -11 9 -12 -2 -6 -10 6
-12 4 -6 -5 12 -20 12 -60 0 -60 -5 0 -1 -8 10 -17 16 -13 17 -15 3 -10 -10 4
-18 2 -18 -3 0 -6 5 -10 11 -10 6 0 7 -5 2 -13 -12 -19 -11 -57 1 -50 6 4 5 0
-1 -9 -14 -17 -6 -32 12 -20 6 4 2 -1 -8 -10 -12 -11 -14 -18 -6 -18 7 0 10
-3 6 -6 -3 -3 -2 -17 4 -31 6 -17 6 -22 -3 -17 -7 5 -8 3 -3 -6 4 -7 2 -16 -6
-22 -10 -6 -7 -7 10 -3 15 5 21 3 17 -3 -3 -6 -3 -12 1 -15 5 -2 3 -3 -3 -1
-7 1 -11 -8 -10 -21 0 -13 5 -21 10 -17 5 3 7 -5 4 -16 -4 -12 -2 -20 2 -17
11 7 23 -32 15 -45 -4 -6 -1 -9 6 -8 9 2 13 -7 13 -24 -1 -19 4 -28 15 -28 14
0 14 -2 1 -11 -12 -9 -10 -10 9 -5 17 3 21 2 13 -6 -18 -18 7 -59 32 -53 12 3
15 2 9 -1 -7 -3 -13 -12 -13 -20 0 -9 5 -12 10 -9 6 3 10 -1 10 -10 0 -9 4
-14 9 -11 4 3 13 -6 20 -20 6 -14 15 -23 19 -20 5 3 16 -6 26 -19 10 -14 22
-23 26 -20 4 3 14 -3 21 -13 13 -15 12 -16 -4 -3 -9 7 -17 9 -17 3 0 -16 26
-22 39 -9 10 9 12 9 9 -3 -2 -10 3 -14 16 -12 18 3 18 2 5 -14 -12 -15 -12
-17 1 -12 9 3 21 -4 28 -16 13 -20 13 -20 8 -1 -6 19 -5 19 8 2 11 -14 15 -15
20 -5 3 7 4 3 2 -10 -4 -19 -2 -21 10 -11 10 8 14 8 14 0 0 -6 9 -11 21 -11
11 0 17 -5 14 -10 -3 -6 0 -10 9 -10 8 0 17 6 20 13 3 6 3 1 0 -11 -5 -21 -3
-23 15 -17 15 4 21 3 19 -7 -2 -7 8 -14 22 -16 14 -2 33 -13 43 -25 10 -12 16
-16 12 -9 -3 6 -2 12 3 12 6 0 13 -7 16 -16 4 -10 12 -14 22 -10 11 4 18 -1
21 -15 4 -16 8 -17 14 -7 7 10 9 11 9 0 0 -7 5 -10 10 -7 6 3 10 -2 10 -11 0
-14 3 -15 12 -6 10 10 15 7 26 -10 11 -19 12 -20 8 -3 -6 19 -5 19 8 3 7 -10
19 -18 25 -18 7 0 9 -5 5 -11 -4 -7 2 -6 17 2 22 11 23 11 10 -5 -12 -14 -12
-16 4 -10 14 6 16 4 10 -7 -7 -11 -5 -11 10 1 11 9 16 10 11 2 -4 -7 -2 -12 4
-12 6 0 8 -5 4 -12 -5 -9 -2 -9 9 1 12 9 17 10 17 2 0 -7 5 -9 12 -5 7 5 9 2
6 -7 -4 -10 1 -15 13 -16 10 -1 19 3 19 9 0 6 3 8 6 5 4 -4 1 -14 -7 -23 -13
-16 -12 -16 10 -5 19 11 22 11 16 0 -6 -9 -3 -11 8 -6 13 5 17 1 18 -16 0 -21
1 -21 9 -2 8 19 9 19 9 1 1 -15 4 -16 16 -6 12 10 14 8 10 -9 -3 -19 -1 -20
17 -10 17 9 20 9 16 -3 -4 -9 1 -14 13 -15 10 -1 19 3 19 9 0 6 3 8 6 5 4 -4
1 -13 -5 -21 -9 -11 -9 -16 0 -22 7 -4 9 -3 6 3 -4 6 0 14 9 17 8 3 12 2 9 -4
-3 -6 -1 -11 4 -11 6 -1 15 -2 20 -3 5 0 13 -5 18 -10 5 -5 3 -6 -4 -2 -7 4
-13 2 -13 -4 0 -6 10 -8 26 -4 21 5 25 4 19 -6 -6 -10 -2 -12 14 -7 19 5 20 3
9 -11 -10 -12 -10 -14 0 -8 6 4 12 3 12 -2 0 -6 9 -8 20 -5 12 3 20 0 20 -8 0
-7 3 -9 7 -6 4 4 20 -5 36 -20 17 -16 27 -23 24 -17 -4 7 0 14 7 17 10 4 13 0
11 -14 -3 -16 -1 -18 16 -9 15 9 21 7 25 -5 3 -8 15 -15 26 -15 10 0 16 -4 13
-10 -8 -14 8 -13 22 1 9 9 11 6 7 -12 -5 -19 -4 -21 5 -9 7 10 11 11 11 3 0
-7 9 -13 20 -13 11 0 20 -4 20 -10 0 -5 7 -7 15 -4 12 5 14 2 8 -12 -6 -17 -5
-18 12 -4 10 8 16 11 13 5 -3 -5 1 -17 10 -25 14 -13 15 -12 9 2 -4 12 -2 15
9 11 7 -3 14 -9 14 -14 0 -5 9 -9 20 -9 11 0 20 -4 20 -10 0 -5 14 -10 31 -10
25 0 30 -3 25 -16 -6 -15 -4 -15 11 -3 14 12 16 12 11 -1 -4 -11 2 -16 23 -16
19 -1 26 2 22 10 -4 6 1 5 10 -3 18 -14 23 -26 8 -16 -5 3 -12 1 -15 -4 -7
-11 13 -9 32 2 6 5 12 4 12 -2 0 -6 8 -7 18 -4 15 6 16 5 2 -12 -14 -17 -14
-18 8 -6 17 9 22 9 22 -1 0 -9 3 -9 10 2 5 8 10 10 10 5 0 -6 9 -11 20 -12 13
-1 18 2 14 9 -4 7 -2 8 5 4 9 -6 9 -11 -1 -24 -12 -14 -10 -14 10 -3 12 6 22
8 22 4 0 -4 12 -9 27 -10 18 -1 22 2 12 8 -10 6 -8 8 8 6 12 0 19 -5 17 -9 -3
-4 11 -8 31 -8 21 0 34 -4 30 -10 -3 -6 1 -7 10 -4 14 6 14 8 -2 21 -16 13
-16 13 5 3 13 -6 30 -9 38 -6 8 3 14 0 14 -7 0 -8 4 -6 10 3 8 12 10 12 10 -5
0 -15 2 -17 9 -6 6 9 19 12 40 8 19 -4 31 -2 31 4 0 6 5 7 10 4 6 -4 7 -11 4
-17 -4 -7 -2 -8 5 -4 6 4 9 11 6 16 -3 4 4 10 15 13 11 3 20 1 20 -5 0 -5 10
-6 23 -2 12 4 27 7 34 7 6 0 9 7 5 15 -3 10 -1 13 7 8 6 -4 19 -2 27 5 12 10
13 9 8 -7 -5 -18 -5 -18 9 -1 10 12 17 14 22 8 3 -6 12 -11 18 -10 9 0 9 2 0
6 -7 2 -13 9 -13 14 0 6 6 9 13 7 6 -1 23 4 36 11 13 7 21 9 18 4 -4 -5 0 -10
8 -10 8 0 13 5 12 10 -1 5 4 12 12 15 10 3 11 0 5 -9 -6 -11 -5 -12 8 -2 8 7
18 10 22 6 4 -4 4 1 0 12 -5 16 -4 18 6 8 12 -11 43 -7 36 6 -2 3 3 13 12 21
14 13 15 12 9 -5 -7 -20 -7 -20 8 -1 8 11 15 14 15 8 0 -7 5 -12 11 -12 5 0 7
5 4 10 -3 6 -1 10 5 10 6 0 9 4 6 8 -2 4 5 9 17 9 17 2 19 0 7 -7 -9 -6 -10
-10 -3 -10 6 0 15 5 18 10 4 6 12 7 18 3 7 -4 6 1 -2 10 -12 15 -12 17 3 11 9
-3 16 -1 16 5 0 6 7 8 15 5 8 -4 15 -1 15 6 0 6 5 8 12 4 8 -5 9 -2 5 10 -5
12 -3 15 6 9 17 -10 57 -12 51 -1 -3 4 -10 6 -15 3 -5 -3 -6 1 -3 10 5 12 9
13 20 4 11 -9 14 -8 14 1 0 7 7 10 16 6 8 -3 12 -2 9 3 -3 5 -1 12 5 16 5 3
10 0 10 -7 0 -10 2 -10 9 1 5 8 16 11 26 7 15 -5 16 -4 6 8 -10 12 -9 13 8 9
13 -3 21 -1 21 7 0 7 8 10 19 7 14 -3 18 -1 14 9 -3 8 -10 11 -16 7 -5 -3 -7
-1 -4 5 4 5 17 8 29 4 16 -4 19 -2 13 9 -7 12 -6 12 7 1 13 -10 17 -10 22 4 4
11 14 15 31 12 20 -4 23 -2 15 8 -9 10 -6 11 9 7 12 -3 21 -1 21 6 0 6 9 11
20 11 11 0 20 4 20 10 0 5 -8 7 -17 4 -15 -5 -15 -4 1 6 15 10 20 9 27 -1 7
-12 9 -12 9 0 0 8 6 11 16 7 15 -6 15 -4 3 11 -8 9 -9 14 -3 10 6 -3 19 0 30
7 10 8 24 12 30 9 7 -2 15 0 19 6 3 6 15 11 26 11 17 0 24 11 20 33 -1 5 3 6
9 2 15 -9 51 5 44 17 -5 8 3 9 26 5 27 -6 31 -5 21 7 -14 16 -4 25 22 21 9 -2
17 1 17 6 0 6 4 7 10 4 11 -7 42 8 41 18 -2 17 0 19 14 7 13 -11 14 -10 10 3
-4 8 -2 18 4 22 6 3 11 1 11 -4 0 -6 5 -11 10 -11 6 0 10 10 10 23 1 20 2 20
13 5 12 -15 14 -15 27 5 12 21 12 21 -6 7 -18 -14 -18 -14 -5 3 11 14 16 15
29 5 13 -11 14 -11 7 1 -6 11 -3 13 14 8 19 -5 20 -3 10 9 -7 8 -8 14 -3 13
23 -4 45 2 39 11 -6 10 6 14 39 10 14 -1 17 3 12 16 -6 15 -4 15 11 3 15 -12
16 -12 10 5 -7 17 -6 17 10 5 15 -12 16 -12 11 2 -5 12 -1 15 16 14 24 -3 48
7 47 19 -1 3 1 5 4 4 2 -2 11 6 20 17 9 11 14 13 10 5 -4 -8 1 -6 10 5 9 11
18 19 20 18 3 -2 13 -3 23 -3 14 0 15 2 2 10 -11 7 -11 10 -2 10 7 0 10 4 7
10 -3 6 1 7 10 4 11 -4 26 4 43 23 15 16 21 21 14 12 -10 -13 -11 -19 -1 -25
8 -4 10 -3 5 5 -4 6 0 14 8 17 9 3 16 13 16 21 0 8 5 11 10 8 6 -3 13 1 16 9
3 9 10 14 14 11 5 -3 7 6 6 19 -2 18 1 23 12 18 11 -4 13 -2 7 8 -5 8 -4 11 2
7 16 -10 43 27 38 52 -3 17 -1 20 8 12 10 -7 12 -3 11 17 -1 15 2 32 6 37 8
10 10 16 10 36 0 5 4 8 9 4 5 -3 12 -1 16 5 3 5 1 10 -5 10 -6 0 -8 5 -5 10 4
6 11 8 16 5 5 -4 5 4 -1 19 -6 17 -6 27 2 32 7 5 8 3 3 -6 -5 -9 -4 -11 4 -6
9 6 9 11 0 22 -9 11 -9 14 1 14 9 0 10 4 2 13 -12 15 -5 57 10 57 5 0 6 5 3
10 -4 6 -12 8 -18 4 -7 -3 -4 1 5 8 11 9 14 19 8 28 -6 9 -3 19 8 28 9 7 12
11 5 8 -6 -4 -14 -2 -18 4 -3 5 -2 10 2 10 15 0 10 44 -6 57 -14 10 -13 13 9
22 l25 10 -25 1 c-21 1 -22 2 -6 9 17 7 17 8 2 24 -16 16 -16 17 1 17 15 0 16
2 3 10 -8 5 -10 10 -5 10 6 0 10 12 9 28 -1 17 -7 26 -15 24 -8 -1 -6 4 5 13
19 14 19 15 1 35 -14 15 -15 19 -4 15 13 -5 15 3 13 46 -2 28 -8 57 -14 64 -8
10 -8 15 1 21 8 4 9 3 5 -4 -4 -7 -3 -12 3 -12 13 0 9 53 -4 62 -6 5 -6 8 2 8
6 0 9 9 6 20 -3 12 0 20 8 20 7 0 9 3 6 6 -4 4 -14 1 -24 -7 -13 -11 -15 -11
-9 -1 4 7 10 28 13 45 3 18 10 39 16 47 7 8 2 7 -10 -3 -21 -18 -21 -18 -16 2
3 12 12 21 21 21 13 0 12 3 -4 15 -13 10 -14 14 -5 15 10 0 11 3 2 14 -7 9 -8
15 -2 18 6 2 7 17 2 41 -6 23 -5 37 1 37 5 0 6 5 2 11 -3 6 0 16 7 21 11 8 10
9 -3 4 -12 -3 -18 0 -18 10 0 8 4 13 9 10 10 -7 7 46 -4 64 -5 9 -4 11 3 6 18
-11 14 5 -5 26 -16 18 -16 18 3 12 17 -7 18 -6 4 11 -9 11 -10 16 -2 11 15 -9
15 -1 2 24 -7 13 -7 21 1 25 7 5 5 15 -5 31 -14 21 -14 23 -1 18 13 -5 14 -2
6 18 -5 14 -6 30 -2 37 11 16 3 82 -11 98 -8 10 -7 12 5 8 13 -6 14 -1 7 29
-4 19 -5 38 -2 41 4 3 0 10 -8 15 -13 8 -12 10 2 10 9 0 20 5 23 10 4 6 1 9
-6 8 -6 -2 -14 3 -17 11 -2 8 0 11 5 8 5 -3 10 0 10 8 0 8 -4 12 -8 9 -4 -2
-11 1 -15 7 -4 7 -3 9 2 6 6 -3 16 -2 24 4 12 7 9 9 -10 10 -16 1 -19 3 -8 6
13 3 15 10 7 36 -12 41 -12 42 6 27 13 -11 14 -9 1 15 -13 26 -13 30 2 43 9 7
12 11 5 8 -6 -4 -14 -2 -18 4 -3 5 -1 10 6 10 7 0 5 8 -6 20 -18 20 -18 21 1
14 17 -7 18 -6 4 11 -9 11 -10 16 -2 11 14 -9 16 3 2 24 -7 11 -5 17 8 22 15
6 15 7 0 7 -12 1 -15 7 -10 23 4 16 2 19 -8 13 -8 -5 -11 -4 -6 3 4 6 13 9 21
5 8 -3 15 0 15 7 0 6 -4 9 -9 6 -5 -3 -15 2 -22 11 -8 9 -9 14 -3 10 7 -4 14
0 17 7 3 8 1 17 -6 20 -9 3 -9 5 0 5 6 1 9 10 6 21 -3 12 0 20 8 20 7 0 9 3 6
6 -4 4 -14 1 -23 -7 -16 -13 -16 -12 -5 10 7 13 11 34 8 47 -3 15 1 25 12 27
13 4 13 5 -1 6 -23 1 -24 21 -1 21 15 0 14 2 -3 15 -13 10 -14 14 -5 15 10 0
11 3 2 14 -7 9 -8 15 -2 18 6 2 7 17 2 41 -5 21 -5 37 0 37 5 0 9 5 9 11 0 5
-3 8 -8 5 -4 -2 -6 14 -4 36 4 32 1 39 -9 33 -8 -4 -3 3 11 15 14 12 20 19 13
16 -6 -4 -14 -2 -18 4 -3 5 -1 10 6 10 8 0 6 7 -5 19 -14 16 -15 21 -3 32 16
16 12 38 -12 58 -15 13 -15 13 2 8 9 -4 17 -2 17 3 0 6 -6 10 -12 11 -7 0 -4
4 7 9 18 8 18 9 -5 10 -14 1 -19 4 -13 7 8 3 10 11 5 21 -5 9 -8 29 -7 44 1
18 -3 24 -10 18 -7 -6 -10 0 -9 18 0 14 -5 37 -12 51 -7 13 -10 29 -7 34 3 6
1 7 -5 3 -6 -4 -8 -14 -5 -24 4 -13 2 -13 -10 3 -9 11 -17 28 -17 38 0 11 -4
15 -12 11 -7 -5 -8 -3 -3 5 8 14 -29 54 -41 43 -4 -4 -4 -1 0 6 11 19 -18 44
-34 29 -10 -10 -11 -7 -5 11 5 18 3 22 -16 22 -12 0 -20 3 -16 6 8 9 -41 61
-63 67 -11 3 -21 2 -23 -2 -2 -3 -2 0 0 7 2 8 -6 16 -17 19 -11 3 -20 9 -20
14 0 5 -7 9 -16 9 -8 0 -12 5 -8 11 4 7 -1 7 -16 -1 -15 -8 -20 -8 -16 -1 12
19 -4 33 -22 19 -13 -11 -14 -11 -7 1 6 11 4 13 -10 7 -15 -5 -16 -4 -6 8 10
11 9 14 -1 12 -7 -1 -18 -5 -25 -9 -7 -5 -10 0 -6 15 3 17 2 19 -5 9 -8 -11
-11 -9 -17 8 -4 13 -15 21 -30 21 -13 0 -25 5 -27 11 -2 6 -16 12 -31 12 -15
0 -25 3 -22 6 2 4 0 13 -6 21 -6 10 -9 11 -9 3 0 -7 -5 -13 -11 -13 -5 0 -8 4
-4 9 5 9 -32 27 -47 23 -5 -1 -8 4 -8 12 0 7 -9 16 -20 19 -11 3 -18 1 -14 -4
3 -5 -2 -6 -10 -3 -9 3 -13 10 -10 15 3 5 -2 9 -10 9 -9 0 -16 4 -16 8 0 4 -9
8 -21 9 -12 1 -27 10 -34 19 -8 11 -20 15 -34 11 -19 -5 -21 -3 -9 11 7 9 8
14 4 10 -5 -4 -16 -2 -24 5 -13 9 -14 9 -8 0 4 -7 2 -13 -3 -13 -6 0 -11 8
-11 18 0 14 -2 15 -10 2 -8 -13 -10 -12 -10 3 0 15 -6 19 -26 16 -4 0 -11 5
-15 13 -7 11 -11 10 -18 -1 -8 -12 -11 -9 -16 12 -6 23 -10 25 -27 16 -12 -7
-18 -7 -14 -1 5 9 -39 28 -56 24 -5 -1 -7 4 -5 11 1 6 -6 11 -15 11 -10 -1
-15 3 -12 8 4 6 -2 8 -15 3 -13 -4 -21 -2 -21 5 0 6 5 8 12 4 7 -4 8 -3 4 4
-4 7 -16 12 -27 12 -11 0 -24 10 -29 23 -5 12 -9 17 -9 11 -1 -7 -8 -15 -17
-18 -15 -6 -15 -4 -3 11 13 15 12 16 -7 11 -12 -3 -28 -1 -35 4 -11 8 -10 9 3
4 10 -3 19 -2 22 2 2 4 -7 9 -22 10 -14 1 -29 7 -33 13 -3 6 -10 11 -15 12 -5
1 -8 6 -6 11 2 5 -4 4 -12 -4 -15 -11 -20 -7 -17 12 0 4 -6 5 -15 1 -9 -3 -19
-1 -23 5 -3 5 -15 12 -26 14 -11 1 -27 12 -36 22 -9 11 -31 20 -50 22 -19 1
-36 3 -39 4 -3 1 -9 2 -13 1 -5 -1 -6 3 -2 9 3 6 12 7 18 4 9 -5 9 -3 0 6 -10
11 -15 11 -29 -1 -12 -9 -15 -10 -10 -1 5 8 1 12 -13 12 -10 0 -22 -6 -25 -12
-3 -7 -3 -2 0 10 5 20 2 23 -18 22 -36 -3 -50 -1 -44 8 2 4 -4 13 -14 20 -13
8 -21 8 -26 1 -4 -6 -12 -2 -21 11 -12 17 -18 19 -29 9 -11 -9 -14 -9 -14 1 0
8 -9 11 -25 8 -17 -4 -29 0 -35 11 -8 13 -9 14 -10 1 0 -10 -3 -11 -8 -4 -14
20 -41 24 -52 6 -11 -16 -11 -16 -6 1 6 19 -9 23 -20 5 -5 -7 -11 -5 -21 7 -9
14 -13 15 -13 4 0 -12 -2 -12 -10 1 -9 13 -10 13 -10 0 0 -9 -3 -11 -8 -4 -11
16 -42 25 -42 12 0 -7 -5 -6 -15 2 -12 10 -15 10 -15 -1 -1 -9 -5 -8 -15 5
-13 17 -15 18 -15 3 0 -20 -16 -23 -23 -4 -3 7 -6 4 -6 -6 -1 -17 -2 -17 -18
-1 -16 15 -17 15 -24 -2 -6 -18 -7 -17 -10 2 -3 18 -6 19 -16 9z m452 -65 c3
-5 1 -10 -4 -10 -6 0 -11 5 -11 10 0 6 2 10 4 10 3 0 8 -4 11 -10z m289 -118
c3 -5 -1 -9 -9 -9 -8 0 -12 4 -9 9 3 4 7 8 9 8 2 0 6 -4 9 -8z m956 -502 c0
-5 -2 -10 -4 -10 -3 0 -8 5 -11 10 -3 6 -1 10 4 10 6 0 11 -4 11 -10z m269
-174 c-3 -3 -11 5 -18 17 -13 21 -12 21 5 5 10 -10 16 -20 13 -22z m-3895
-174 c3 -5 -1 -9 -9 -9 -8 0 -12 4 -9 9 3 4 7 8 9 8 2 0 6 -4 9 -8z m4091 -51
c3 -5 2 -12 -3 -15 -5 -3 -9 1 -9 9 0 17 3 19 12 6z m55 -485 c0 -2 -7 -7 -16
-10 -8 -3 -12 -2 -9 4 6 10 25 14 25 6z m-4243 -591 c0 -8 -4 -12 -9 -9 -5 3
-6 10 -3 15 9 13 12 11 12 -6z m3 -75 c0 -5 -5 -10 -11 -10 -5 0 -7 5 -4 10 3
6 8 10 11 10 2 0 4 -4 4 -10z m4240 -614 c0 -2 -7 -7 -16 -10 -8 -3 -12 -2 -9
4 6 10 25 14 25 6z m-96 -1097 c-3 -5 -10 -7 -15 -3 -5 3 -7 10 -3 15 3 5 10
7 15 3 5 -3 7 -10 3 -15z m-2850 -705 c3 -8 2 -12 -4 -9 -6 3 -10 10 -10 16 0
14 7 11 14 -7z m986 -238 c0 -2 -7 -7 -16 -10 -8 -3 -12 -2 -9 4 6 10 25 14
25 6z"/>
<path d="M3590 4646 c0 -2 7 -7 16 -10 8 -3 12 -2 9 4 -6 10 -25 14 -25 6z"/>
<path d="M4685 3680 c-3 -5 -1 -10 4 -10 6 0 11 5 11 10 0 6 -2 10 -4 10 -3 0
-8 -4 -11 -10z"/>
<path d="M4696 2727 c3 -10 9 -15 12 -12 3 3 0 11 -7 18 -10 9 -11 8 -5 -6z"/>
<path d="M4690 1361 c0 -6 4 -13 10 -16 6 -3 7 1 4 9 -7 18 -14 21 -14 7z"/>
<path d="M4648 1183 c7 -3 16 -2 19 1 4 3 -2 6 -13 5 -11 0 -14 -3 -6 -6z"/>
<path d="M4635 1160 c-3 -5 -1 -10 4 -10 6 0 11 5 11 10 0 6 -2 10 -4 10 -3 0
-8 -4 -11 -10z"/>
<path d="M3695 511 c-3 -5 -2 -12 3 -15 5 -3 9 1 9 9 0 17 -3 19 -12 6z"/>
</g>
</svg>
